<?xml version="1.0" encoding="utf-8"?>
<!-- Generator: Adobe Illustrator 20.0.0, SVG Export Plug-In . SVG Version: 6.00 Build 0)  -->
<svg version="1.1" id="Layer_1" xmlns="http://www.w3.org/2000/svg" xmlns:xlink="http://www.w3.org/1999/xlink" x="0px" y="0px"
	 width="50px" height="50px" viewBox="0 0 50 50" style="enable-background:new 0 0 50 50;" xml:space="preserve">
<text transform="matrix(1 0 0 1 100 -10)" style="font-family:'MyriadPro-Regular'; font-size:12px;">0</text>
<g>
	<path d="M36.6,24.1c0,13.3-4.9,20.6-13.6,20.6c-7.6,0-12.8-7.1-12.9-20c0-13.1,5.6-20.3,13.6-20.3C31.9,4.3,36.6,11.7,36.6,24.1z
		 M15.4,24.7c0,10.1,3.1,15.9,7.9,15.9c5.4,0,8-6.3,8-16.3c0-9.6-2.5-15.9-7.9-15.9C18.8,8.4,15.4,14.1,15.4,24.7z"/>
</g>
</svg>
