<?xml version="1.0" encoding="utf-8"?>
<!-- Generator: Adobe Illustrator 20.0.0, SVG Export Plug-In . SVG Version: 6.00 Build 0)  -->
<svg version="1.1" id="Layer_1" xmlns="http://www.w3.org/2000/svg" xmlns:xlink="http://www.w3.org/1999/xlink" x="0px" y="0px"
	 width="50px" height="50px" viewBox="0 0 50 50" style="enable-background:new 0 0 50 50;" xml:space="preserve">
<g>
	<path d="M13,38.9c1.5,1,5,2.5,8.6,2.5c6.8,0,8.9-4.3,8.8-7.6c-0.1-5.5-5-7.8-10.1-7.8h-2.9v-4h2.9c3.8,0,8.7-2,8.7-6.6
		c0-3.1-2-5.9-6.8-5.9c-3.1,0-6.1,1.4-7.8,2.6L13,8.3c2-1.5,6-3,10.2-3c7.7,0,11.2,4.6,11.2,9.3c0,4-2.4,7.4-7.2,9.2v0.1
		c4.8,1,8.7,4.6,8.7,10c0,6.2-4.9,11.7-14.2,11.7c-4.4,0-8.2-1.4-10.1-2.6L13,38.9z"/>
</g>
</svg>
