<?xml version="1.0" encoding="utf-8"?>
<!-- Generator: Adobe Illustrator 21.0.0, SVG Export Plug-In . SVG Version: 6.00 Build 0)  -->
<svg version="1.1" id="Layer_1" xmlns="http://www.w3.org/2000/svg" xmlns:xlink="http://www.w3.org/1999/xlink" x="0px" y="0px"
	 viewBox="0 0 50 50" style="enable-background:new 0 0 50 50;" xml:space="preserve">
<path d="M20.5,46.2c0.8,0.2,0.4,1.4,0.7,2.1c1.9-0.2,2.4-0.7,2.8-2.5c0.5-2.4,1.6-4.6,2.1-7c1-4.6-1-10.4-1.3-15
	c-0.2-3.4-1.5-6.1-2.3-9.3c-1.2-4.5,0.2-9.9,0.8-14.3C23.5-1.2,24-3,23.6-4.4c-0.4-1.2-1.4-2.3-1.8-3.7C20.2-13.9,19-19.8,19-25.8
	c0-1.4,0.2-8.2-2.2-7.6c-1.3,0.3-1.1,4.1-1.2,5.2c-0.2,3.2,0.6,6.2,1.5,9.2c1,3.4,2.7,7.2,2.8,10.8c0.1,2.7-0.7,5.5-1.2,8.1
	c-1.4,7.5,0.4,15.7,1.4,23.1c0.7,4.9,2,9,1.4,14c-0.4,3.4-0.5,6.9-1,10.3"/>
<polygon points="24.4,37.5 29.1,50 30.5,49.2 "/>
<polygon points="18.8,13.1 7.1,45.1 8,45.8 18.9,14.3 "/>
<polygon points="21.8,42.6 27.4,45.8 25,48.4 "/>
<path d="M17.9,46.5c0.2,0.1,0,0.3,0,0.4c0.5,0.1,0.6,0.1,0.8-0.2c0.3-0.4,0.7-0.6,0.9-1c0.5-0.7,0.4-1.8,0.6-2.7
	c0.2-0.6,0-1.2,0-1.8c0-0.9,0.7-1.7,1.1-2.4c0.1-0.2,0.4-0.5,0.3-0.8c0-0.2-0.2-0.5-0.2-0.8c0-1.1,0.1-2.2,0.5-3.2
	c0.1-0.2,0.5-1.4,0-1.5c-0.3-0.1-0.5,0.6-0.6,0.8c-0.2,0.5-0.2,1.1-0.2,1.7c0,0.7,0.2,1.5,0,2.1c-0.1,0.5-0.5,0.9-0.8,1.3
	c-0.8,1.1-0.9,2.7-1.1,4c-0.1,0.9-0.1,1.7-0.5,2.5c-0.3,0.5-0.5,1.1-0.9,1.7"/>
<path d="M30.3,46.1c-0.3-0.5-0.6-1.1-0.9-1.7c-0.5-0.8-0.4-1.6-0.5-2.5c-0.2-1.4-0.3-2.9-1.1-4c-0.3-0.4-0.7-0.8-0.8-1.3
	c-0.2-0.6,0-1.4,0-2.1c0-0.6,0-1.2-0.2-1.7c-0.1-0.2-0.3-0.8-0.6-0.8c-0.6,0.1-0.1,1.2,0,1.5c0.4,1,0.5,2.1,0.5,3.2
	c0,0.3-0.2,0.5-0.2,0.8c0,0.3,0.2,0.5,0.3,0.8c0.4,0.7,1.1,1.5,1.1,2.4c0,0.6-0.1,1.2,0,1.8c0.2,0.8,0.1,2,0.6,2.7
	c0.3,0.4,0.7,0.6,0.9,1c0.2,0.3,0.3,0.3,0.8,0.2c0-0.2-0.1-0.3,0-0.4"/>
</svg>
