<?xml version="1.0" encoding="utf-8"?>
<!-- Generator: Adobe Illustrator 21.0.0, SVG Export Plug-In . SVG Version: 6.00 Build 0)  -->
<svg version="1.1" id="Layer_1" xmlns="http://www.w3.org/2000/svg" xmlns:xlink="http://www.w3.org/1999/xlink" x="0px" y="0px"
	 viewBox="0 0 50 50" style="enable-background:new 0 0 50 50;" xml:space="preserve">
<style type="text/css">
	.st0{fill:#FFFFFF;}
</style>
<path class="st0" d="M34.3,11.8c0,1.5-1.2,2.7-2.7,2.7h-40c-1.5,0-2.7-1.2-2.7-2.7l0,0c0-1.5,1.2-2.7,2.7-2.7h40
	C33.1,9.2,34.3,10.4,34.3,11.8L34.3,11.8z"/>
<path class="st0" d="M-100.3,26.2c0,2.9,2.4,5.3,5.3,5.3H73.3c2.9,0,5.3-2.4,5.3-5.3l0,0c0-2.9-2.4-5.3-5.3-5.3H-95
	C-97.9,20.8-100.3,23.2-100.3,26.2L-100.3,26.2z"/>
<path class="st0" d="M53,36.8c0,0.2-0.1,0.3-0.3,0.3H44c-0.2,0-0.3-0.1-0.3-0.3l0,0c0-0.2,0.1-0.3,0.3-0.3h8.7
	C52.9,36.5,53,36.6,53,36.8L53,36.8z"/>
</svg>
